<svg width="42" height="42" viewBox="0 0 42 42" fill="none" xmlns="http://www.w3.org/2000/svg">
<g clip-path="url(#clip0)">
<path d="M25.9 24.5H25.13C24.8404 24.5005 24.5813 24.3198 24.4818 24.0478C24.3964 23.8238 24.3047 23.6047 24.206 23.3877C24.0833 23.1238 24.1393 22.8113 24.346 22.6065L24.8948 22.057C25.7095 21.2351 25.708 19.9097 24.8913 19.0897L22.9131 17.1115C22.0921 16.2953 20.7661 16.2953 19.9451 17.1115L19.3963 17.6596C19.191 17.8655 18.8791 17.9214 18.6151 17.7996C18.3981 17.7009 18.179 17.6092 17.9543 17.5196C17.6809 17.4208 17.4989 17.1608 17.5 16.87V16.1C17.5 14.9402 16.5598 14 15.4 14H12.6C11.4402 14 10.5 14.9402 10.5 16.1V16.87C10.5005 17.1596 10.3198 17.4187 10.0478 17.5182C9.8238 17.6036 9.6047 17.6953 9.3877 17.794C9.12371 17.9161 8.81169 17.8601 8.6065 17.654L8.057 17.1052C7.23607 16.2895 5.91062 16.2895 5.0897 17.1052L3.1115 19.0897C2.2953 19.9107 2.2953 21.2367 3.1115 22.0577L3.6596 22.6065C3.86628 22.8113 3.92227 23.1238 3.7996 23.3877C3.7009 23.6047 3.6092 23.8238 3.5231 24.0485C3.42291 24.3221 3.16137 24.503 2.87 24.5H2.1C0.940187 24.5 0 25.4402 0 26.6V29.4C0 30.5598 0.940187 31.5 2.1 31.5H2.87C3.15962 31.4995 3.41871 31.6802 3.5182 31.9522C3.6036 32.1762 3.6953 32.3953 3.794 32.6123C3.91668 32.8762 3.86067 33.1887 3.654 33.3935L3.1052 33.943C2.28952 34.7639 2.28952 36.0894 3.1052 36.9103L5.0834 38.8885C5.90441 39.7047 7.23039 39.7047 8.0514 38.8885L8.6002 38.3404C8.80548 38.1345 9.11741 38.0786 9.3814 38.2004C9.5984 38.2991 9.8175 38.3908 10.0422 38.4804C10.317 38.5781 10.5005 38.8384 10.5 39.13V39.9C10.5 41.0598 11.4402 42 12.6 42H15.4C16.5598 42 17.5 41.0598 17.5 39.9V39.13C17.4995 38.8404 17.6802 38.5813 17.9522 38.4818C18.1762 38.3964 18.3953 38.3047 18.6123 38.206C18.8763 38.0839 19.1883 38.1398 19.3935 38.346L19.943 38.8948C20.7651 39.7092 22.0902 39.7076 22.9103 38.8913L24.8885 36.9131C25.7047 36.0921 25.7047 34.7661 24.8885 33.9451L24.3404 33.3963C24.1337 33.1915 24.0777 32.879 24.2004 32.6151C24.2991 32.3981 24.3908 32.179 24.4804 31.9543C24.5792 31.6809 24.8392 31.4989 25.13 31.5H25.9C27.0598 31.5 28 30.5598 28 29.4V26.6C28 25.4402 27.0598 24.5 25.9 24.5ZM26.6 29.4C26.6 29.7866 26.2866 30.1 25.9 30.1H25.13C24.2598 30.1032 23.4811 30.6411 23.17 31.4538C23.0958 31.6498 23.0156 31.8427 22.9292 32.0327C22.5693 32.8272 22.7363 33.7614 23.3492 34.3819L23.8966 34.93C24.1701 35.2032 24.1704 35.6465 23.8971 35.92C23.8969 35.9202 23.8968 35.9203 23.8966 35.9205L21.9184 37.8987C21.6451 38.172 21.202 38.172 20.9286 37.8987L20.3798 37.3506C19.7595 36.7371 18.825 36.5701 18.0306 36.9306C17.8409 37.0167 17.6477 37.0972 17.4531 37.1714C16.641 37.4824 16.1035 38.2604 16.1 39.13V39.9C16.1 40.2866 15.7866 40.6 15.4 40.6H12.6C12.2134 40.6 11.9 40.2866 11.9 39.9V39.13C11.8968 38.2598 11.3589 37.4811 10.5462 37.17C10.3502 37.0958 10.1573 37.0156 9.9673 36.9292C9.1728 36.5695 8.23874 36.7365 7.6181 37.3492L7.07 37.8966C6.79682 38.1701 6.35355 38.1704 6.08002 37.8971C6.07985 37.8969 6.07968 37.8968 6.0795 37.8966L4.1013 35.9205C3.82804 35.6471 3.82804 35.2041 4.1013 34.9307L4.6494 34.3819C5.26234 33.7614 5.42929 32.8272 5.0694 32.0327C4.9833 31.843 4.9028 31.6498 4.8286 31.4552C4.51832 30.6422 3.7401 30.1038 2.87 30.1H2.1C1.71342 30.1 1.4 29.7866 1.4 29.4V26.6C1.4 26.2134 1.71342 25.9 2.1 25.9H2.87C3.74019 25.8968 4.51894 25.3589 4.83 24.5462C4.9042 24.3502 4.98444 24.1573 5.0708 23.9673C5.43069 23.1728 5.26365 22.2386 4.6508 21.6181L4.1006 21.07C3.82707 20.7968 3.82681 20.3535 4.10008 20.08C4.10025 20.0798 4.10042 20.0797 4.1006 20.0795L6.0788 18.1013C6.35215 17.828 6.79525 17.828 7.0686 18.1013L7.6174 18.6494C8.23769 19.2629 9.17219 19.4299 9.9666 19.0694C10.1563 18.9833 10.3495 18.9028 10.5441 18.8286C11.3573 18.5186 11.8961 17.7403 11.9 16.87V16.1C11.9 15.7134 12.2134 15.4 12.6 15.4H15.4C15.7866 15.4 16.1 15.7134 16.1 16.1V16.87C16.1032 17.7402 16.6411 18.5189 17.4538 18.83C17.6498 18.9042 17.8427 18.9844 18.0327 19.0708C18.8271 19.4313 19.7616 19.2643 20.3819 18.6508L20.93 18.1034C21.2044 17.832 21.6461 17.832 21.9205 18.1034L23.8987 20.0816C24.172 20.3549 24.172 20.798 23.8987 21.0714L23.3506 21.6202C22.7378 22.2407 22.5707 23.1749 22.9306 23.9694C23.0167 24.1591 23.0972 24.3523 23.1714 24.5469C23.4824 25.359 24.2604 25.8965 25.13 25.9H25.9C26.2866 25.9 26.6 26.2134 26.6 26.6V29.4Z" fill="#FFFEFE"/>
<path d="M20.286 27.72C20.279 27.552 20.2671 27.3847 20.2468 27.2181C20.2244 27.0389 20.1978 26.8611 20.1607 26.6868C20.1362 26.5727 20.104 26.46 20.0732 26.3466C20.034 26.2024 19.9899 26.0603 19.9409 25.9203C19.9066 25.823 19.8709 25.7264 19.8345 25.6305C19.7444 25.4063 19.6413 25.1874 19.5258 24.9753C19.5167 24.9592 19.5111 24.9417 19.502 24.9256C19.32 24.6015 19.1091 24.2942 18.872 24.0079C18.8517 23.9827 18.8286 23.9589 18.8076 23.9344C18.711 23.8203 18.6116 23.7097 18.5073 23.604C18.4527 23.5473 18.3953 23.4941 18.3379 23.4395C18.2679 23.3744 18.1979 23.31 18.1279 23.2484C18.043 23.1746 17.9564 23.1032 17.8682 23.0342L17.7534 22.9488C16.6703 22.1375 15.3533 21.6993 14 21.7C13.93 21.7 13.86 21.7105 13.79 21.7133C13.6409 21.7175 13.4911 21.7259 13.3406 21.7413C13.2615 21.7497 13.1817 21.7588 13.1026 21.77C12.8744 21.8 12.648 21.8423 12.4243 21.8967C9.05375 22.7676 7.02743 26.2062 7.8984 29.5768C8.4724 31.7979 10.2077 33.5318 12.4292 34.104C12.4404 34.104 12.4523 34.1075 12.4642 34.1103C12.706 34.1705 12.9509 34.2174 13.1978 34.2503C13.3609 34.2706 13.524 34.2748 13.6878 34.2825C13.797 34.2881 13.8978 34.3042 14.0119 34.3042C14.2114 34.3042 14.4186 34.2909 14.63 34.2699C14.6524 34.2699 14.6748 34.2636 14.7 34.2608C14.8701 34.2419 15.0423 34.2167 15.218 34.1817C15.288 34.1684 15.3531 34.1509 15.4203 34.1355C15.5435 34.1068 15.666 34.0767 15.792 34.0396C15.89 34.0102 15.9852 33.9759 16.0811 33.9423C16.177 33.9087 16.2764 33.8723 16.3758 33.8345C16.4752 33.7967 16.5585 33.7533 16.6488 33.7113C16.7664 33.6574 16.8833 33.6042 16.9988 33.5412H17.003C17.6563 33.1914 18.2597 32.7557 18.7971 32.2455C18.9423 32.11 19.0686 31.9555 19.1723 31.7863C19.7187 30.9104 20.0776 29.9308 20.2265 28.9093C20.2461 28.7742 20.2636 28.6391 20.2741 28.5012C20.2839 28.3745 20.2909 28.2485 20.2937 28.1225C20.2937 28.0826 20.2993 28.0448 20.2993 28.0049C20.3 27.9062 20.2902 27.8152 20.286 27.72ZM18.8909 28.1785C18.8909 28.2366 18.886 28.2947 18.8825 28.3521C18.8699 28.5215 18.8482 28.6909 18.8195 28.861C18.5579 30.3163 17.6543 31.5763 16.3597 32.291C16.2729 32.3365 16.1875 32.3792 16.1021 32.4184L16.044 32.4464C15.6373 32.631 15.2081 32.7609 14.7672 32.8328C14.7364 32.8377 14.7049 32.8433 14.6734 32.8475C14.5859 32.8601 14.4998 32.8706 14.4144 32.8783C14.3017 32.8881 14.1883 32.8937 14.0728 32.8958C14.0238 32.8958 13.9755 32.8958 13.9265 32.8958C13.7609 32.8938 13.5955 32.8836 13.4309 32.865L13.3469 32.8552C13.1544 32.83 12.9635 32.794 12.775 32.7474C10.1534 32.0763 8.57207 29.407 9.24302 26.7854C9.68638 25.053 11.0383 23.6998 12.7701 23.2547V23.254C13.1723 23.1525 13.5853 23.1007 14 23.1C14.2002 23.1011 14.4001 23.1147 14.5985 23.1406C14.6517 23.1469 14.7042 23.1567 14.7567 23.1644C14.9079 23.1882 15.0577 23.2183 15.2054 23.2561C15.2537 23.2687 15.302 23.2799 15.3496 23.2932C15.7219 23.4006 16.0802 23.5515 16.4171 23.7426C16.471 23.7741 16.5235 23.807 16.5767 23.8399C16.6873 23.9099 16.7944 23.9799 16.9001 24.0597C16.9568 24.101 17.0142 24.1416 17.0688 24.1857C17.2062 24.2954 17.3377 24.4122 17.4629 24.5357C17.5126 24.5861 17.5581 24.6414 17.6064 24.6939C17.6869 24.7814 17.7653 24.871 17.8402 24.9655C17.892 25.0306 17.9417 25.0978 17.9907 25.1657C18.0607 25.2665 18.1307 25.3715 18.1937 25.4779C18.2287 25.536 18.2637 25.5927 18.2994 25.6522C18.3897 25.8183 18.4702 25.9896 18.5402 26.1653C18.5682 26.2353 18.592 26.3053 18.6172 26.3753C18.6627 26.5041 18.7019 26.6343 18.7362 26.7659C18.7537 26.8359 18.7733 26.8982 18.788 26.9661C18.8289 27.1552 18.8586 27.3467 18.8769 27.5394C18.8811 27.5905 18.8811 27.6423 18.8846 27.6934C18.8944 27.8544 18.8972 28.0161 18.8909 28.1785Z" fill="#FFFEFE"/>
<path d="M39.9 14.7H37.6985C37.405 14.703 37.1424 14.5181 37.0461 14.2408C36.829 13.5906 36.5664 12.9564 36.26 12.3431C36.13 12.0782 36.1842 11.7598 36.3944 11.5528L37.9554 9.9897C38.7748 9.16974 38.7748 7.84096 37.9554 7.021L34.979 4.0495C34.1591 3.23015 32.8303 3.23015 32.0103 4.0495L30.45 5.6091C30.2433 5.81927 29.9253 5.8737 29.6604 5.7442C29.047 5.43629 28.4127 5.17221 27.762 4.9539C27.4836 4.85861 27.2974 4.59576 27.3 4.3015V2.1C27.3 0.940188 26.3598 0 25.2 0H21C19.8402 0 18.9 0.940188 18.9 2.1V4.3015C18.903 4.59506 18.7182 4.85765 18.4408 4.9539C17.7905 5.17213 17.1563 5.43603 16.5431 5.7435C16.2783 5.87396 15.9597 5.8198 15.7528 5.6091L14.1897 4.0481C13.3688 3.23111 12.0419 3.23111 11.221 4.0481L8.25022 7.0189C7.43043 7.83895 7.43043 9.16825 8.25022 9.9883L10.5455 12.2878C10.8232 12.5568 11.2663 12.5498 11.5353 12.2721C11.7977 12.0012 11.7983 11.571 11.5367 11.2994L9.24002 9.0006C8.96675 8.72725 8.96675 8.28415 9.24002 8.0108L12.2108 5.04C12.4842 4.76674 12.9273 4.76674 13.2006 5.04L14.7644 6.601C15.3971 7.23748 16.3666 7.39655 17.1696 6.9958C17.7241 6.71816 18.2974 6.47981 18.8853 6.2825C19.7339 5.99524 20.3037 5.19741 20.3 4.3015V2.1C20.3 1.71343 20.6134 1.4 21 1.4H25.2C25.5866 1.4 25.9 1.71343 25.9 2.1V4.3015C25.8964 5.19724 26.4662 5.9948 27.3147 6.2818C27.9029 6.4792 28.4765 6.71773 29.0311 6.9958C29.8343 7.39445 30.8025 7.2352 31.4356 6.6003L32.9994 5.04C33.2728 4.76674 33.7159 4.76674 33.9892 5.04L36.96 8.0115C37.2328 8.28476 37.2328 8.72734 36.96 9.0006L35.399 10.5644C34.7632 11.1975 34.6042 12.1665 35.0042 12.9696C35.2819 13.5241 35.5202 14.0974 35.7175 14.6853C36.0046 15.5341 36.8025 16.1039 37.6985 16.1H39.9C40.2866 16.1 40.6 16.4134 40.6 16.8V21C40.6 21.3866 40.2866 21.7 39.9 21.7H37.6985C36.8028 21.6964 36.0052 22.2662 35.7182 23.1147C35.5209 23.7029 35.2823 24.2764 35.0042 24.8311C34.6049 25.6342 34.7642 26.6027 35.3997 27.2356L36.9607 28.7994C37.234 29.0728 37.234 29.5159 36.9607 29.7892L33.9885 32.76C33.7153 33.0328 33.2727 33.0328 32.9994 32.76L30.6992 30.4647C30.4302 30.187 29.9871 30.18 29.7094 30.449C29.4317 30.7179 29.4247 31.1611 29.6937 31.4388C29.6993 31.4445 29.705 31.4503 29.7108 31.4559L32.0103 33.7512C32.8303 34.5706 34.1591 34.5706 34.979 33.7512L37.9498 30.7811C38.7696 29.9611 38.7696 28.6318 37.9498 27.8117L36.3909 26.25C36.1809 26.0432 36.1266 25.7253 36.2558 25.4604C36.5637 24.847 36.8278 24.2127 37.0461 23.562C37.1414 23.2836 37.4043 23.0974 37.6985 23.1H39.9C41.0598 23.1 42 22.1598 42 21V16.8C42 15.6402 41.0598 14.7 39.9 14.7Z" fill="#FFFEFE"/>
<path d="M29.5344 12.4656C25.9786 8.91722 20.2214 8.91722 16.6656 12.4656C16.397 12.7437 16.4047 13.1869 16.6828 13.4554C16.9541 13.7174 17.3841 13.7174 17.6554 13.4554C20.6422 10.4283 25.5174 10.3956 28.5446 13.3824C31.5717 16.3692 31.6044 21.2445 28.6176 24.2716C28.5934 24.2961 28.5691 24.3205 28.5446 24.3446C28.2665 24.6132 28.2588 25.0563 28.5274 25.3344C28.7961 25.6125 29.2392 25.6202 29.5172 25.3516C29.523 25.346 29.5288 25.3402 29.5344 25.3344C33.0828 21.7786 33.0828 16.0214 29.5344 12.4656Z" fill="#FFFEFE"/>
</g>
<defs>
<clipPath id="clip0">
<rect width="42" height="42" fill="white"/>
</clipPath>
</defs>
</svg>
